<svg viewBox="0 0 26 26" xmlns="http://www.w3.org/2000/svg" xmlns:xlink="http://www.w3.org/1999/xlink" width="26.000000" height="26.000000" fill="none">
	<rect id="material-symbols-light:mark-email-read-outline-rounded" width="26.000000" height="26.000000" x="0.000000" y="0.000000" fill="rgb(255,255,255)" fill-opacity="0" />
	<path id="Vector" d="M4.667 6.49984L13 11.9165L21.333 6.49984L4.667 6.49984ZM5.00067 20.5832C4.51894 20.5832 4.10692 20.4116 3.76458 20.0686C3.42225 19.7255 3.25072 19.3142 3.25 18.8347L3.25 7.16609C3.25 6.68509 3.42153 6.27342 3.76458 5.93109C4.10764 5.58875 4.51931 5.41723 4.99958 5.4165L21.0004 5.4165C21.4814 5.4165 21.8931 5.58803 22.2354 5.93109C22.5777 6.27414 22.7493 6.68581 22.75 7.16609L22.75 13.2078C22.75 13.3617 22.698 13.4906 22.594 13.5946C22.49 13.6986 22.3611 13.7502 22.2073 13.7495C22.0534 13.7488 21.9249 13.6971 21.8216 13.5946C21.7183 13.492 21.6667 13.3631 21.6667 13.2078L21.6667 7.45859L13.4853 12.8146C13.4174 12.8644 13.2557 12.9114 13 12.9554C12.9097 12.9554 12.8252 12.9457 12.7465 12.9262C12.6685 12.9059 12.5912 12.8688 12.5147 12.8146L4.33333 7.4575L4.33333 18.8325C4.33333 19.0275 4.39581 19.1875 4.52075 19.3124C4.64569 19.4374 4.80567 19.4998 5.00067 19.4998L10.5625 19.4998C10.7163 19.4998 10.8449 19.5518 10.9482 19.6558C11.0514 19.7598 11.1034 19.8888 11.1042 20.0426C11.1049 20.1964 11.0529 20.325 10.9482 20.4283C10.8434 20.5315 10.7149 20.5832 10.5625 20.5832L5.00067 20.5832ZM16.7798 21.5083L22.5583 15.7288C22.6594 15.6276 22.7836 15.5735 22.9309 15.5663C23.0783 15.559 23.2097 15.6132 23.3253 15.7288C23.4408 15.8443 23.4986 15.9721 23.4986 16.1123C23.4986 16.2524 23.4408 16.3802 23.3253 16.4958L17.3918 22.4292C17.2171 22.604 17.013 22.6913 16.7798 22.6913C16.5465 22.6913 16.3421 22.604 16.1666 22.4292L13.3088 19.5703C13.2076 19.4691 13.1535 19.3449 13.1463 19.1976C13.139 19.0503 13.1932 18.9192 13.3088 18.8043C13.4243 18.6895 13.5521 18.6317 13.6923 18.631C13.8324 18.6303 13.9598 18.6881 14.0747 18.8043L16.7798 21.5083Z" fill="rgb(38,103,255)" fill-rule="evenodd" />
</svg>
