<svg viewBox="0 0 16 16" xmlns="http://www.w3.org/2000/svg" xmlns:xlink="http://www.w3.org/1999/xlink" width="16.000000" height="16.000000" fill="none">
	<rect id="mdi:hide-outline" width="16.000000" height="16.000000" x="0.000000" y="0.000000" fill="rgb(255,255,255)" fill-opacity="0" />
	<path id="Vector" d="M1.33073 3.51317L2.18406 2.6665L13.3307 13.8132L12.4841 14.6665L10.4307 12.6132C9.66406 12.8665 8.85073 12.9998 7.9974 12.9998C4.66406 12.9998 1.8174 10.9265 0.664062 7.99984C1.12406 6.8265 1.8574 5.79317 2.79073 4.97317L1.33073 3.51317ZM7.9974 5.99984C8.52783 5.99984 9.03654 6.21055 9.41161 6.58562C9.78668 6.9607 9.9974 7.4694 9.9974 7.99984C9.99773 8.22688 9.95941 8.45233 9.88406 8.6665L7.33073 6.11317C7.54491 6.03783 7.77035 5.9995 7.9974 5.99984ZM7.9974 2.99984C11.3307 2.99984 14.1774 5.07317 15.3307 7.99984C14.7863 9.38179 13.8618 10.5814 12.6641 11.4598L11.7174 10.5065C12.6394 9.8688 13.3829 9.00591 13.8774 7.99984C13.3385 6.89975 12.5018 5.97292 11.4623 5.32474C10.4229 4.67655 9.22239 4.33301 7.9974 4.33317C7.27073 4.33317 6.5574 4.45317 5.89073 4.6665L4.86406 3.6465C5.82406 3.23317 6.88406 2.99984 7.9974 2.99984ZM2.1174 7.99984C2.65629 9.09993 3.49303 10.0267 4.53249 10.6749C5.57194 11.3231 6.7724 11.6667 7.9974 11.6665C8.4574 11.6665 8.91073 11.6198 9.33073 11.5265L7.81073 9.99984C7.34684 9.95011 6.91395 9.74309 6.58405 9.41319C6.25415 9.08329 6.04712 8.6504 5.9974 8.1865L3.73073 5.91317C3.07073 6.47984 2.5174 7.1865 2.1174 7.99984Z" fill="rgb(148,163,184)" fill-rule="nonzero" />
</svg>
