<svg viewBox="0 0 26 26" xmlns="http://www.w3.org/2000/svg" xmlns:xlink="http://www.w3.org/1999/xlink" width="26.000000" height="26.000000" fill="none">
	<rect id="hugeicons:location-05" width="26.000000" height="26.000000" x="0.000000" y="0.000000" fill="rgb(255,255,255)" fill-opacity="0" />
	<g id="Group">
		<path id="Vector" d="M14.9164 11.6649C14.4085 12.1728 13.7196 12.4582 13.0013 12.4582C12.283 12.4582 11.5941 12.1728 11.0862 11.6649C10.5783 11.157 10.293 10.4681 10.293 9.74984C10.293 9.03154 10.5783 8.34267 11.0862 7.83476C11.5941 7.32685 12.283 7.0415 13.0013 7.0415C13.7196 7.0415 14.4085 7.32685 14.9164 7.83476C15.4243 8.34267 15.7096 9.03154 15.7096 9.74984C15.7096 10.4681 15.4243 11.157 14.9164 11.6649Z" fill-rule="nonzero" stroke="rgb(38,103,255)" stroke-linecap="round" stroke-linejoin="round" stroke-width="0.900000" />
		<path id="Vector" d="M13.0018 19.5004C12.494 19.5004 12.006 19.3037 11.6401 18.9517C8.29366 15.7093 3.80974 12.0877 5.99591 6.82917C7.17999 3.98542 10.0183 2.1665 13.0018 2.1665C15.9853 2.1665 18.8247 3.9865 20.0077 6.82917C22.1917 12.0801 17.7187 15.7201 14.3636 18.9517C13.9977 19.3037 13.5096 19.5004 13.0018 19.5004ZM19.5018 21.6665C19.5018 22.8636 16.592 23.8332 13.0018 23.8332C9.41166 23.8332 6.50182 22.8636 6.50182 21.6665" fill-rule="nonzero" stroke="rgb(38,103,255)" stroke-linecap="round" stroke-linejoin="round" stroke-width="0.900000" />
	</g>
</svg>
