<svg viewBox="0 0 84.9324 27.5186" xmlns="http://www.w3.org/2000/svg" xmlns:xlink="http://www.w3.org/1999/xlink" width="84.932373" height="27.518555" fill="none" customFrame="#000000">
	<rect id="Visa" width="84.932320" height="27.518709" x="0.000000" y="0.000000" fill="rgb(255,255,255)" fill-opacity="0" />
	<path id="path3789" d="M55.3195 0C49.289 0 43.8998 3.12573 43.8998 8.90077C43.8998 15.5236 53.4577 15.9811 53.4577 19.3082C53.4577 20.7092 51.8523 21.9632 49.1102 21.9632C45.2187 21.9632 42.3102 20.2109 42.3102 20.2109L41.0657 26.0386C41.0657 26.0386 44.4162 27.5187 48.8646 27.5187C55.4579 27.5187 60.646 24.2395 60.646 18.3657C60.646 11.3675 51.0483 10.9236 51.0483 7.83546C51.0483 6.73804 52.3663 5.5356 55.1005 5.5356C58.1855 5.5356 60.7025 6.80998 60.7025 6.80998L61.9204 1.18146C61.9204 1.18146 59.1817 0 55.3195 0ZM0.146023 0.424795L0 1.27438C0 1.27438 2.53705 1.7387 4.82208 2.66492C7.76424 3.72702 7.97383 4.34531 8.46934 6.26572L13.8689 27.0806L21.107 27.0806L32.2578 0.424795L25.0363 0.424795L17.8712 18.5482L14.9475 3.18596C14.6793 1.42776 13.3211 0.424795 11.6586 0.424795L0.146023 0.424795ZM35.1617 0.424795L29.4967 27.0806L36.383 27.0806L42.0281 0.424795L35.1617 0.424795ZM73.5691 0.424795C71.9085 0.424795 71.0287 1.31382 70.3831 2.86736L60.2943 27.0806L67.5158 27.0806L68.9129 23.0451L77.7108 23.0451L78.5604 27.0806L84.9323 27.0806L79.3735 0.424795L73.5691 0.424795ZM74.5083 7.62639L76.6488 17.629L70.9141 17.629L74.5083 7.62639Z" fill="rgb(100,116,139)" fill-rule="nonzero" />
</svg>
