<svg viewBox="0 0 16 19.6821" xmlns="http://www.w3.org/2000/svg" xmlns:xlink="http://www.w3.org/1999/xlink" width="16.000000" height="19.682129" fill="none">
	<rect id="logos:apple" width="16.000000" height="19.682215" x="0.000000" y="0.000488" fill="rgb(255,255,255)" fill-opacity="0" />
	<path id="Vector" d="M13.364 10.4371C13.3916 13.41 15.972 14.3993 16.0006 14.4119C15.9787 14.4817 15.5883 15.8217 14.6412 17.2059C13.8224 18.4027 12.9725 19.595 11.6338 19.6197C10.3186 19.6439 9.89556 18.8397 8.39171 18.8397C6.8883 18.8397 6.41836 19.595 5.1732 19.6439C3.88105 19.6928 2.89706 18.3499 2.07153 17.1575C0.384485 14.7186 -0.904732 10.2656 0.826366 7.25979C1.68632 5.76707 3.22322 4.82188 4.89127 4.79764C6.16012 4.77346 7.3578 5.65128 8.13347 5.65128C8.90863 5.65128 10.3641 4.59563 11.8941 4.75065C12.5345 4.77733 14.3326 5.00933 15.4871 6.69925C15.394 6.75692 13.3417 7.95167 13.364 10.4371M10.892 3.13708C11.578 2.30668 12.0397 1.15074 11.9138 0.000488281C10.9249 0.0402276 9.72923 0.659436 9.01992 1.48934C8.38427 2.22433 7.82761 3.40064 7.97782 4.52808C9.08002 4.61337 10.2059 3.96799 10.892 3.13708Z" fill="rgb(0,0,0)" fill-rule="nonzero" />
</svg>
