<svg viewBox="0 0 15 15" xmlns="http://www.w3.org/2000/svg" xmlns:xlink="http://www.w3.org/1999/xlink" width="15.000000" height="15.000000" fill="none">
	<rect id="teenyicons:tick-circle-solid" width="15.000000" height="15.000000" x="0.000000" y="0.000000" fill="rgb(255,255,255)" fill-opacity="0" />
	<path id="Vector" d="M4.44089e-16 7.5C2.22045e-16 5.51088 0.790176 3.60322 2.1967 2.1967C3.60322 0.790176 5.51088 1.66533e-15 7.5 0C9.48912 9.4369e-16 11.3968 0.790176 12.8033 2.1967C14.2098 3.60322 15 5.51088 15 7.5C15 9.48912 14.2098 11.3968 12.8033 12.8033C11.3968 14.2098 9.48912 15 7.5 15C5.51088 15 3.60322 14.2098 2.1967 12.8033C0.790176 11.3968 1.44329e-15 9.48912 4.44089e-16 7.5ZM7.072 10.71L11.39 5.312L10.61 4.688L6.928 9.289L4.32 7.116L3.68 7.884L7.072 10.71Z" fill="rgb(148,163,184)" fill-rule="evenodd" />
</svg>
