<svg viewBox="0 0 34.4387 34.4385" xmlns="http://www.w3.org/2000/svg" xmlns:xlink="http://www.w3.org/1999/xlink" width="34.438721" height="34.438477" fill="none" customFrame="#000000">
	<rect id="Frame 223" width="34.000000" height="34.000000" x="0.000000" y="0.000000" />
	<path id="Subtract" d="M7.65781e-38 9.01145C7.65781e-38 5.95921 -1.82965e-13 4.4331 0.565625 3.25518C1.1304 2.07904 2.07904 1.1304 3.25518 0.565625C4.4331 -6.37712e-13 5.95921 3.24247e-36 9.01145 3.24247e-36L25.4272 3.24247e-36C28.4794 3.24247e-36 30.0056 -6.37712e-13 31.1835 0.565625C32.3596 1.1304 33.3082 2.07904 33.873 3.25518C34.4386 4.4331 34.4386 5.95921 34.4386 9.01145L34.4386 25.4272C34.4386 28.4794 34.4386 30.0056 33.873 31.1835C33.3082 32.3596 32.3596 33.3082 31.1835 33.873C30.0056 34.4386 28.4794 34.4386 25.4272 34.4386L9.01145 34.4386C5.95921 34.4386 4.4331 34.4386 3.25518 33.873C2.07904 33.3082 1.1304 32.3596 0.565625 31.1835C-1.82965e-13 30.0056 7.65781e-38 28.4794 7.65781e-38 25.4272L7.65781e-38 9.01145Z" fill="rgb(38,103,255)" fill-rule="nonzero" />
	<path id="Z" d="M11.4036 26.3987C9.97352 26.3987 8.81421 25.2394 8.81421 23.8093C8.81421 23.2036 9.02658 22.617 9.41437 22.1516L16.666 13.4497C17.2066 12.8061 17.7644 12.1668 18.3393 11.5318C18.7201 11.1112 19.1065 10.6888 19.4986 10.2645C19.7714 9.96921 20.2598 10.0736 20.3898 10.4541C20.5078 10.7995 20.2511 11.1585 19.8861 11.1585C19.2847 11.1585 18.6833 11.1585 18.0819 11.1585C17.2324 11.1585 16.3828 11.1585 15.5333 11.1585L11.0153 11.1585C9.92762 11.1585 9.0459 10.2768 9.0459 9.18911C9.0459 8.10145 9.92762 7.21973 11.0153 7.21973L21.7416 7.21973C23.1753 7.21973 24.3376 8.38197 24.3376 9.81568C24.3376 10.4175 24.1285 11.0007 23.746 11.4654L16.6145 20.1301C16.0653 20.7737 15.5032 21.4216 14.9283 22.0738C14.5506 22.4966 14.1691 22.9213 13.7839 23.3479C13.5124 23.6487 13.018 23.5458 12.8879 23.162C12.7711 22.8174 13.0274 22.4599 13.3913 22.4599C13.9873 22.4599 14.5855 22.4599 15.1857 22.4599C16.0353 22.4599 16.8848 22.4599 17.7344 22.4599L22.4583 22.4599C23.546 22.4599 24.4277 23.3416 24.4277 24.4293C24.4277 25.517 23.546 26.3987 22.4583 26.3987L11.4036 26.3987Z" fill="rgb(255,255,255)" fill-rule="nonzero" />
</svg>
