<svg viewBox="0 0 26 26" xmlns="http://www.w3.org/2000/svg" xmlns:xlink="http://www.w3.org/1999/xlink" width="26.000000" height="26.000000" fill="none">
	<rect id="ph:phone-call-light" width="26.000000" height="26.000000" x="0.000000" y="0.000000" fill="rgb(255,255,255)" fill-opacity="0" />
	<path id="Vector" d="M14.8484 4.71777C14.8691 4.64039 14.9048 4.56783 14.9535 4.50425C15.0021 4.44067 15.0629 4.38731 15.1322 4.34722C15.2015 4.30713 15.2781 4.2811 15.3575 4.27062C15.4369 4.26014 15.5176 4.26541 15.5949 4.28613C17.0668 4.67006 18.4096 5.43943 19.4852 6.515C20.5608 7.59057 21.3301 8.93344 21.7141 10.4053C21.7348 10.4826 21.7401 10.5633 21.7296 10.6427C21.7191 10.7221 21.6931 10.7987 21.653 10.868C21.6129 10.9373 21.5595 10.9981 21.496 11.0467C21.4324 11.0954 21.3598 11.1311 21.2824 11.1518C21.2311 11.1654 21.1781 11.1722 21.125 11.1721C20.9908 11.1721 20.8602 11.1279 20.7537 11.0462C20.6472 10.9644 20.5706 10.8498 20.5359 10.7201C20.2063 9.45585 19.5456 8.30235 18.6217 7.3785C17.6979 6.45465 16.5443 5.79387 15.2801 5.46425C15.2027 5.44362 15.1302 5.40794 15.0666 5.35925C15.003 5.31056 14.9496 5.24981 14.9095 5.18048C14.8694 5.11115 14.8434 5.0346 14.8329 4.95521C14.8225 4.87581 14.8277 4.79513 14.8484 4.71777ZM14.4676 8.71425C15.9453 9.10832 16.8919 10.0549 17.2859 11.5326C17.3206 11.6623 17.3972 11.7769 17.5037 11.8587C17.6102 11.9404 17.7408 11.9846 17.875 11.9846C17.9281 11.9847 17.9811 11.9779 18.0324 11.9643C18.1098 11.9436 18.1824 11.9079 18.246 11.8592C18.3095 11.8106 18.3629 11.7498 18.403 11.6805C18.4431 11.6112 18.4691 11.5346 18.4796 11.4552C18.4901 11.3758 18.4848 11.2951 18.4641 11.2178C17.9563 9.31753 16.6827 8.04394 14.7824 7.53613C14.7051 7.51546 14.6244 7.51022 14.545 7.52073C14.4656 7.53123 14.3891 7.55727 14.3198 7.59735C14.2505 7.63743 14.1897 7.69077 14.141 7.75433C14.0923 7.81788 14.0566 7.89041 14.0359 7.96777C14.0153 8.04513 14.01 8.1258 14.0205 8.20518C14.031 8.28456 14.0571 8.36109 14.0972 8.43041C14.1372 8.49972 14.1906 8.56047 14.2541 8.60917C14.3177 8.65787 14.3902 8.69358 14.4676 8.71425ZM22.5357 18.5658C22.3617 19.8935 21.7102 21.1123 20.7029 21.9946C19.6956 22.8768 18.4015 23.362 17.0625 23.3596C9.11017 23.3596 2.64064 16.89 2.64064 8.93769C2.63807 7.59914 3.12287 6.30543 4.00449 5.29822C4.8861 4.291 6.10423 3.63918 7.43134 3.46449C7.73684 3.42736 8.04613 3.49035 8.31278 3.644C8.57942 3.79765 8.78902 4.03367 8.91009 4.3166L11.0531 9.10019C11.1477 9.31675 11.1868 9.55348 11.167 9.78897C11.1471 10.0245 11.0689 10.2513 10.9393 10.4489C10.9262 10.4691 10.912 10.4884 10.8967 10.5068L8.75673 13.052C8.74374 13.0784 8.73698 13.1074 8.73698 13.1368C8.73698 13.1662 8.74374 13.1952 8.75673 13.2216C9.5347 14.8141 11.2044 16.4716 12.8192 17.2486C12.8462 17.2608 12.8756 17.2667 12.9053 17.2656C12.9349 17.2646 12.9638 17.2566 12.9899 17.2425L15.4974 15.1096C15.5154 15.0941 15.5344 15.0799 15.5543 15.067C15.7511 14.9358 15.9775 14.8558 16.213 14.8341C16.4485 14.8125 16.6857 14.8499 16.9031 14.9431L21.7009 17.0932C21.98 17.2169 22.212 17.4272 22.3623 17.693C22.5127 17.9587 22.5735 18.2659 22.5357 18.5689L22.5357 18.5658ZM21.3281 18.4155C21.3315 18.373 21.3215 18.3306 21.2995 18.2941C21.2774 18.2577 21.2444 18.2291 21.2052 18.2124L16.4064 16.0623C16.3802 16.0522 16.3521 16.0479 16.3241 16.0496C16.296 16.0514 16.2687 16.0592 16.2439 16.0725L13.7374 18.2053C13.7191 18.2205 13.6998 18.2347 13.6805 18.2479C13.476 18.3843 13.2397 18.4653 12.9946 18.4831C12.7495 18.5009 12.504 18.4549 12.282 18.3495C10.4173 17.4486 8.55868 15.6073 7.65782 13.7599C7.55187 13.5392 7.5047 13.2948 7.52089 13.0505C7.53709 12.8062 7.61609 12.5702 7.75024 12.3654C7.7634 12.3451 7.778 12.3258 7.79392 12.3075L9.93181 9.75933C9.94403 9.73273 9.95036 9.7038 9.95036 9.67453C9.95036 9.64525 9.94403 9.61632 9.93181 9.58972L7.79392 4.80511C7.7798 4.76669 7.75441 4.73343 7.72106 4.70968C7.68771 4.68594 7.64797 4.67283 7.60704 4.67207L7.58368 4.67207C6.55073 4.80947 5.60311 5.31815 4.91776 6.10311C4.23242 6.88807 3.85621 7.89565 3.85939 8.93769C3.85939 16.2177 9.78251 22.1408 17.0625 22.1408C18.1047 22.144 19.1124 21.7676 19.8974 21.0821C20.6824 20.3965 21.191 19.4486 21.3281 18.4155Z" fill="rgb(38,103,255)" fill-rule="evenodd" />
</svg>
