<svg viewBox="0 0 115.371 16.0337" xmlns="http://www.w3.org/2000/svg" xmlns:xlink="http://www.w3.org/1999/xlink" width="115.371338" height="16.033691" fill="none" customFrame="#000000">
	<rect id="Patreon (black)" width="115.352051" height="16.033489" x="0.000000" y="0.000000" fill="rgb(255,255,255)" fill-opacity="0" />
	<path id="path14" d="M8.38708 9.73733C8.38708 11.1535 7.42832 12.3735 5.94703 12.3735L3.52902 12.3735L3.52902 7.10191L5.94703 7.10191C7.42832 7.10191 8.38708 8.32117 8.38708 9.73733ZM0 15.2489L6.3825 15.2489C9.7593 15.2489 11.938 12.6999 11.938 9.73733C11.938 6.7748 9.7593 4.22653 6.3825 4.22653L3.52902 4.22653L3.52902 0L0 0L0 15.2489Z" fill="rgb(100,116,139)" fill-rule="nonzero" transform="matrix(1,0,0,-1,0,15.6992)" />
	<path id="path16" d="M7.07995 10.8922L5.20641 4.61802L8.90956 4.61802L7.07995 10.8922ZM10.3696 0L9.78203 1.85162L4.35748 1.85162L3.76906 0L0 0L5.44647 15.2489L8.69223 15.2489L14.2039 0L10.3696 0Z" fill="rgb(100,116,139)" fill-rule="nonzero" transform="matrix(1,0,0,-1,15.0747,15.6992)" />
	<path id="path18" d="M3.44112 12.1993L0 12.1993L0 15.2489L10.434 15.2489L10.434 12.1993L6.97011 12.1993L6.97011 0L3.44112 0L3.44112 12.1993Z" fill="rgb(100,116,139)" fill-rule="nonzero" transform="matrix(1,0,0,-1,31.7625,15.6992)" />
	<path id="path20" d="M8.38708 9.73733C8.38708 11.1535 7.42827 12.3735 5.94685 12.3735L3.52868 12.3735L3.52868 7.10191L5.94685 7.10191C7.42827 7.10191 8.38708 8.32117 8.38708 9.73733ZM0 15.2489L6.4051 15.2489C9.78118 15.2489 11.9599 12.6999 11.9599 9.73733C11.9599 7.60252 10.8269 5.70777 8.9313 4.81415L11.9819 0L7.88652 0L5.18431 4.22653L3.52868 4.22653L3.52868 0L0 0L0 15.2489Z" fill="rgb(100,116,139)" fill-rule="nonzero" transform="matrix(1,0,0,-1,47.6865,15.6992)" />
	<path id="path22" d="M3.52913 12.4167L3.52913 8.95354L9.30177 8.95354L9.30177 6.18637L3.52913 6.18637L3.52913 2.83236L9.30177 2.83236L9.30177 0L0 0L0 15.2489L9.30177 15.2489L9.30177 12.4167L3.52913 12.4167Z" fill="rgb(100,116,139)" fill-rule="nonzero" transform="matrix(1,0,0,-1,65.6372,15.6992)" />
	<path id="path24" d="M12.5487 8.01674C12.5487 10.5219 10.8489 12.8528 8.08278 12.8528C5.29414 12.8528 3.61691 10.5219 3.61691 8.01674C3.61691 5.5116 5.29414 3.18062 8.08278 3.18062C10.8489 3.18062 12.5487 5.5116 12.5487 8.01674ZM0 8.01674C0 12.1993 3.00651 16.0335 8.08278 16.0335C13.1361 16.0335 16.1426 12.1993 16.1426 8.01674C16.1426 3.83419 13.1361 0 8.08278 0C3.00651 0 0 3.83419 0 8.01674Z" fill="rgb(100,116,139)" fill-rule="nonzero" transform="matrix(1,0,0,-1,80.668,16.0337)" />
	<path id="path26" d="M9.19374 5.31547L9.19374 15.2489L12.7008 15.2489L12.7008 0L9.01953 0L3.52913 9.80323L3.52913 0L0 0L0 15.2489L3.68127 15.2489L9.19374 5.31547Z" fill="rgb(100,116,139)" fill-rule="nonzero" transform="matrix(1,0,0,-1,102.671,15.6992)" />
</svg>
