<svg viewBox="0 0 96.3301 27.5186" xmlns="http://www.w3.org/2000/svg" xmlns:xlink="http://www.w3.org/1999/xlink" width="96.330078" height="27.518555" fill="none">
	<rect id="Shopify (white) (black)" width="96.330193" height="27.518490" x="-0.000244" y="0.000000" fill="rgb(255,255,255)" fill-opacity="0" />
	<path id="Vector" d="M33.3068 15.3225C32.4711 14.8582 32.0377 14.4867 32.0377 13.9605C32.0377 13.3105 32.6258 12.8771 33.5545 12.8771C34.6379 12.8771 35.5975 13.3414 35.5975 13.3414L36.3404 11.0198C36.3404 11.0198 35.6594 10.4627 33.5854 10.4627C30.7376 10.4627 28.7565 12.1032 28.7565 14.3939C28.7565 15.694 29.6852 16.6845 30.9233 17.3964C31.9139 17.9536 32.2853 18.356 32.2853 18.9442C32.2853 19.5633 31.7901 20.0585 30.8614 20.0585C29.4994 20.0585 28.1993 19.3466 28.1993 19.3466L27.3945 21.6682C27.3945 21.6682 28.6018 22.473 30.6138 22.473C33.5545 22.473 35.6594 21.0181 35.6594 18.4179C35.6594 17.025 34.576 16.0345 33.3068 15.3225ZM45.0076 10.4317C43.5527 10.4317 42.4384 11.1127 41.5407 12.1651L41.4788 12.1342L42.7479 5.57185L39.4977 5.57185L36.3404 22.2563L39.5906 22.2563L40.674 16.5607C41.1073 14.3939 42.2217 13.0938 43.2432 13.0938C43.9861 13.0938 44.2647 13.5891 44.2647 14.301C44.2647 14.7653 44.2028 15.2915 44.1099 15.7559L42.8717 22.2872L46.122 22.2872L47.3911 15.5392C47.5459 14.8272 47.6387 13.9915 47.6387 13.4033C47.6697 11.5461 46.7101 10.4317 45.0076 10.4317ZM55.0368 10.4317C51.1056 10.4317 48.5055 13.9915 48.5055 17.9227C48.5055 20.4609 50.0532 22.5039 52.9938 22.5039C56.8632 22.5039 59.4633 19.037 59.4633 15.013C59.4633 12.6604 58.1013 10.4317 55.0368 10.4317ZM53.4272 19.9966C52.3129 19.9966 51.8485 19.037 51.8485 17.8608C51.8485 16.0035 52.8081 12.939 54.6035 12.939C55.7488 12.939 56.1512 13.9296 56.1512 14.8891C56.1512 16.9321 55.1607 19.9966 53.4272 19.9966ZM67.821 10.4317C65.6233 10.4317 64.3851 12.3818 64.3851 12.3818L64.3232 12.3818L64.5089 10.6174L61.6301 10.6174C61.4754 11.7937 61.2277 13.5891 60.9801 14.951L58.7204 26.8995L61.9706 26.8995L62.8683 22.0706L62.9302 22.0706C62.9302 22.0706 63.6112 22.5039 64.8494 22.5039C68.6877 22.5039 71.1951 18.5727 71.1951 14.6105C71.1951 12.4128 70.2045 10.4317 67.821 10.4317ZM64.6946 20.0276C63.8589 20.0276 63.3326 19.5633 63.3326 19.5633L63.8898 16.4988C64.2613 14.4558 65.3447 13.1247 66.459 13.1247C67.4496 13.1247 67.7591 14.0534 67.7591 14.9201C67.7901 17.025 66.5209 20.0276 64.6946 20.0276ZM75.8382 5.75758C74.7858 5.75758 73.981 6.59335 73.981 7.6458C73.981 8.60539 74.6 9.28639 75.5287 9.28639L75.5906 9.28639C76.6121 9.28639 77.4788 8.60539 77.5098 7.39817C77.4788 6.43858 76.8288 5.75758 75.8382 5.75758ZM71.2879 22.2563L74.5381 22.2563L76.7668 10.7103L73.4857 10.7103L71.2879 22.2563ZM85.0626 10.6793L82.803 10.6793L82.9268 10.1222C83.1125 9.0078 83.7935 8.01725 84.8769 8.01725C85.465 8.01725 85.9294 8.17203 85.9294 8.17203L86.5794 5.60281C86.5794 5.60281 86.0222 5.32422 84.815 5.32422C83.6697 5.32422 82.4934 5.66472 81.6267 6.40762C80.5123 7.36721 79.9861 8.72921 79.7385 10.0912L79.6456 10.6484L78.1288 10.6484L77.6645 13.0938L79.1813 13.0938L77.3859 22.2563L80.6362 22.2563L82.3696 13.1247L84.6293 13.1247L85.0626 10.6793ZM92.9251 10.7103C92.9251 10.7103 90.8821 15.8487 89.9534 18.6656L89.8915 18.6656C89.8296 17.7679 89.0867 10.7103 89.0867 10.7103L85.6508 10.7103L87.6009 21.3277C87.6628 21.5753 87.6319 21.6991 87.539 21.8848C87.1675 22.6277 86.5175 23.3397 85.7746 23.835C85.1555 24.2993 84.4745 24.5779 83.9173 24.7636L84.815 27.5185C85.465 27.3638 86.858 26.8375 88.0033 25.7541C89.4891 24.3612 90.8511 22.1944 92.275 19.2847L96.2681 10.7103L92.9251 10.7103Z" fill="rgb(100,116,139)" fill-rule="nonzero" />
	<g id="Group">
		<path id="Vector" d="M15.5389 26.8375L23.618 25.0731C23.618 25.0731 20.7083 5.35512 20.6773 5.2313C20.6464 5.10748 20.5535 5.01462 20.4297 5.01462C20.3368 5.01462 18.2629 4.85985 18.2629 4.85985L16.6842 3.28117C16.6532 3.25022 16.5913 3.21926 16.5604 3.18831L15.5389 26.8375ZM16.1889 3.18831C16.158 3.18831 16.127 3.18831 16.0961 3.21926C16.0651 3.21926 15.7865 3.31212 15.2912 3.4669C14.8269 2.07395 13.9602 0.83577 12.4744 0.83577L12.3506 0.83577C11.9482 0.247635 11.4219 0 10.9886 0C7.52168 0 5.85014 4.33362 5.35487 6.53138C4.02383 6.93379 3.06424 7.24334 2.94043 7.27429C2.19752 7.52193 2.16657 7.52193 2.0737 8.23388C1.98084 8.79106 -0.000244141 23.9897 -0.000244141 23.9897L15.1674 26.8375L16.1889 3.18831ZM12.2577 4.24076L12.2577 4.39553C11.4219 4.64316 10.4933 4.95271 9.56468 5.2313C10.0909 3.25022 11.0505 2.29063 11.8863 1.91917C12.1339 2.4454 12.2577 3.21926 12.2577 4.24076ZM10.8957 0.928633C11.0505 0.928633 11.2053 0.990542 11.3291 1.08341C10.2147 1.60963 9.03845 2.90972 8.51223 5.54084C7.76932 5.75752 7.05737 6.00516 6.40732 6.19089C6.99546 4.2098 8.38841 0.928633 10.8957 0.928633ZM11.4838 12.6604C11.4838 12.6604 10.5862 12.196 9.50277 12.196C7.89314 12.196 7.80027 13.2175 7.80027 13.4652C7.80027 14.8581 11.4219 15.3844 11.4219 18.6346C11.4219 21.2038 9.78136 22.8444 7.61455 22.8444C4.98342 22.8444 3.65238 21.2038 3.65238 21.2038L4.36433 18.8822C4.36433 18.8822 5.75728 20.0585 6.90259 20.0585C7.67646 20.0585 7.986 19.4703 7.986 19.006C7.986 17.1797 5.01437 17.1178 5.01437 14.1152C5.01437 11.6079 6.80973 9.16251 10.4624 9.16251C11.8553 9.16251 12.5673 9.56492 12.5673 9.56492L11.4838 12.6604ZM12.8768 1.73345C13.6507 1.82631 14.1459 2.69304 14.4864 3.71453C14.115 3.83835 13.6507 3.96217 13.1863 4.11694L13.1863 3.83835C13.1863 2.97163 13.0625 2.29063 12.8768 1.73345Z" fill="rgb(100,116,139)" fill-rule="nonzero" />
	</g>
</svg>
