<svg viewBox="0 0 70.0212 24.3081" xmlns="http://www.w3.org/2000/svg" xmlns:xlink="http://www.w3.org/1999/xlink" width="70.021240" height="24.308105" fill="none">
	<rect id="Uber (black)" width="70.021255" height="24.307999" x="0.000000" y="0.000000" fill="rgb(255,255,255)" fill-opacity="0" />
	<g id="Group">
		<path id="Vector" d="M4.02856 17.3605C4.32446 18.1457 4.73413 18.8172 5.25764 19.3747C5.78115 19.9324 6.40136 20.3591 7.11826 20.655C7.83524 20.9509 8.61477 21.0989 9.45692 21.0989C10.2763 21.0989 11.0445 20.9452 11.7614 20.6379C12.4784 20.3306 13.1043 19.8982 13.6391 19.3406C14.174 18.7829 14.5894 18.1172 14.8853 17.3434C15.1812 16.5695 15.3291 15.7047 15.3291 14.7487L15.3291 0L18.9138 0L18.9138 23.8983L15.3633 23.8983L15.3633 21.6792C14.5667 22.5213 13.6277 23.1699 12.5466 23.6252C11.4655 24.0804 10.2991 24.308 9.04725 24.308C7.77262 24.308 6.58342 24.0861 5.47951 23.6422C4.37568 23.1984 3.41968 22.5669 2.61175 21.7475C1.80382 20.9281 1.16646 19.9438 0.699906 18.7943C0.233277 17.645 0 16.3647 0 14.9535L0 0L3.58474 0L3.58474 14.7487C3.58474 15.7047 3.73265 16.5752 4.02856 17.3605Z" fill="rgb(100,116,139)" fill-rule="nonzero" />
		<path id="Vector" d="M25.0929 0L25.0929 8.7058C25.8895 7.9092 26.8114 7.27766 27.8583 6.81103C28.9053 6.3444 30.0433 6.11113 31.2723 6.11113C32.547 6.11113 33.7418 6.35007 34.8571 6.82803C35.9723 7.30599 36.9396 7.95468 37.759 8.77409C38.5784 9.59351 39.2271 10.5608 39.7051 11.676C40.183 12.7913 40.422 13.9748 40.422 15.2267C40.422 16.4784 40.183 17.6563 39.7051 18.7601C39.2271 19.864 38.5784 20.8257 37.759 21.645C36.9396 22.4644 35.9723 23.1131 34.8571 23.591C33.7418 24.069 32.5469 24.3079 31.2723 24.3079C30.0433 24.3079 28.8996 24.0746 27.8413 23.608C26.7829 23.1415 25.8554 22.5098 25.0588 21.7132L25.0588 23.8983L21.6448 23.8983L21.6448 0L25.0929 0ZM25.4855 17.5823C25.7928 18.3107 26.2196 18.948 26.7658 19.4942C27.3121 20.0405 27.9494 20.473 28.6777 20.7916C29.4061 21.1103 30.1913 21.2696 31.0334 21.2696C31.8528 21.2696 32.6266 21.1103 33.3549 20.7916C34.0832 20.473 34.7148 20.0406 35.2498 19.4942C35.7846 18.9481 36.2113 18.3107 36.53 17.5823C36.8486 16.854 37.0079 16.0688 37.0079 15.2267C37.0079 14.3845 36.8486 13.5936 36.53 12.8539C36.2113 12.1141 35.7846 11.4712 35.2498 10.925C34.7148 10.3788 34.0833 9.95196 33.3549 9.64472C32.6265 9.33749 31.8527 9.18376 31.0334 9.18376C30.2141 9.18376 29.4402 9.33741 28.7119 9.64472C27.9836 9.95203 27.3463 10.3788 26.8 10.925C26.2538 11.4712 25.8213 12.1141 25.5027 12.8539C25.184 13.5936 25.0247 14.3845 25.0247 15.2267C25.0246 16.0688 25.1783 16.854 25.4855 17.5823Z" fill="rgb(100,116,139)" fill-rule="nonzero" />
		<path id="Vector" d="M42.3677 11.7103C42.8229 10.6178 43.4489 9.65622 44.2454 8.82547C45.042 7.99472 45.9866 7.34037 47.0791 6.86241C48.1716 6.38445 49.3552 6.14551 50.6297 6.14551C51.8815 6.14551 53.0423 6.37312 54.1121 6.82827C55.1818 7.28349 56.1036 7.9151 56.8774 8.72311C57.6513 9.53104 58.2545 10.487 58.6868 11.5909C59.1193 12.6948 59.3355 13.8954 59.3355 15.1928L59.3355 16.3194L45.1673 16.3194C45.2811 17.025 45.5087 17.6793 45.8501 18.2824C46.1916 18.8855 46.6182 19.409 47.1303 19.8529C47.6425 20.2967 48.2228 20.6439 48.8715 20.8941C49.5202 21.1445 50.2086 21.2697 50.937 21.2697C53.0083 21.2697 54.6812 20.4162 55.9557 18.7091L58.448 20.5527C57.5831 21.7135 56.5134 22.6239 55.2388 23.2839C53.9642 23.944 52.5303 24.274 50.9371 24.274C49.6397 24.274 48.4278 24.0463 47.3012 23.5912C46.1745 23.136 45.1958 22.4987 44.3651 21.6793C43.5344 20.8598 42.88 19.8983 42.402 18.7944C41.9241 17.6906 41.6851 16.4899 41.6851 15.1926C41.6849 13.9636 41.9126 12.8028 42.3677 11.7103ZM47.1645 10.3617C46.1972 11.1697 45.5542 12.2452 45.2356 13.588L55.8533 13.588C55.5574 12.2452 54.9258 11.1697 53.9585 10.3617C52.9911 9.55378 51.8588 9.14978 50.5615 9.14978C49.2641 9.14978 48.1318 9.55378 47.1645 10.3617Z" fill="rgb(100,116,139)" fill-rule="nonzero" />
		<path id="Vector" d="M65.7878 10.7543C65.0595 11.5509 64.6953 12.632 64.6953 13.9976L64.6953 23.8984L61.2471 23.8984L61.2471 6.48675L64.6611 6.48675L64.6611 8.63761C65.0936 7.93204 65.6569 7.37438 66.3511 6.96472C67.0452 6.55497 67.8703 6.3501 68.8263 6.3501L70.0212 6.3501L70.0212 9.55931L68.5873 9.55931C67.4493 9.55939 66.5161 9.95765 65.7878 10.7543Z" fill="rgb(100,116,139)" fill-rule="nonzero" />
	</g>
</svg>
